<svg xmlns="http://www.w3.org/2000/svg" xmlns:xlink="http://www.w3.org/1999/xlink" width="204.154" height="52.615" viewBox="0 0 204.154 52.615"><defs><style>.a{fill:url(#a);}.b{fill:url(#b);}.c{fill:#fff;}</style><linearGradient id="a" x1="0.119" y1="0.155" x2="0.881" y2="0.845" gradientUnits="objectBoundingBox"><stop offset="0" stop-color="#a0762f"/><stop offset="0.2" stop-color="#fdc778"/><stop offset="0.5" stop-color="#ebcb88"/><stop offset="0.8" stop-color="#bb914a"/><stop offset="1" stop-color="#a0762f"/></linearGradient><linearGradient id="b" x1="0.169" y1="-0.533" x2="0.827" y2="1.545" xlink:href="#a"/></defs><g transform="translate(-443.02 -923.993)"><path class="a" d="M1218.337,932.363l-13.044-7.531a6.266,6.266,0,0,0-6.266,0l-13.044,7.531a6.266,6.266,0,0,0-3.133,5.427v15.062a6.266,6.266,0,0,0,3.133,5.427l13.044,7.531a6.266,6.266,0,0,0,6.266,0l13.044-7.531a6.267,6.267,0,0,0,3.133-5.427V937.79A6.267,6.267,0,0,0,1218.337,932.363Zm-23.012,19.2a2,2,0,0,1-3.995,0v-7.872a2,2,0,0,1,3.995,0Zm5.888-3.006a2,2,0,0,1-2,2h0a2,2,0,0,1-2-2V937.15a2,2,0,0,1,2-2h0a2,2,0,0,1,2,2Zm5.888,4.935a2,2,0,1,1-3.995,0V942.085a2,2,0,1,1,3.995,0Zm5.888-4.935a2,2,0,0,1-3.995,0V937.15a2,2,0,1,1,3.995,0Z" transform="translate(-645.009)"/><path class="b" d="M451.6,982.17l7.071,21.292,7.071-21.292h8.54v27.745h-5.719l.464-21.6-7.11,21.6h-6.183l-7.342-21.832.58,21.832H443.02V982.17Zm35.063,6.55a7.4,7.4,0,0,0-1.778,4.772l16.152-.039v4.83H484.845a11.9,11.9,0,0,0,.328,2.821,5.674,5.674,0,0,0,1.333,2.473,3.709,3.709,0,0,0,2.106,1.295,12.28,12.28,0,0,0,2.492.251h.348l9.583-.039v4.83h-9.854a23.674,23.674,0,0,1-4.54-.425,9.428,9.428,0,0,1-4.115-1.971,10.057,10.057,0,0,1-3.246-4.618,18.8,18.8,0,0,1-1-5.584q-.039-.618-.019-1.2t.058-1.159q.425-6.569,3.574-9.661t9.448-3.091l9.7-.039V987h-9.583A6.4,6.4,0,0,0,486.661,988.72Zm18.352-6.55h6.8l5.719,8.772,5.68-8.772h6.724l-8.926,13.486,9.583,14.259H523.6l-5.835-9.66-6.183,9.66H504.7l9.66-13.872Z" transform="translate(0 -50.721)"/><path class="c" d="M1570.625,999.478a7.139,7.139,0,0,0-3.714-3.4,8.7,8.7,0,0,0,3.539-3.5,7.393,7.393,0,0,0,.368-5.008,5.506,5.506,0,0,0-3.269-4.254,16.578,16.578,0,0,0-5.357-1.083,6.38,6.38,0,0,0-.7-.039,6.408,6.408,0,0,1-.7-.039h-14.271v26.3a1.473,1.473,0,0,0,1.474,1.474h14.5a13.971,13.971,0,0,0,5.24-1.064,5.422,5.422,0,0,0,3.152-4.2A8.377,8.377,0,0,0,1570.625,999.478Zm-18.256-12.338,8.547.039a5.107,5.107,0,0,1,2.746.7,2.649,2.649,0,0,1,1.084,2.514,2.751,2.751,0,0,1-1.084,2.534,4.871,4.871,0,0,1-2.746.638h-8.547Zm11.39,17.231a4.487,4.487,0,0,1-2.766.639h-8.625v-6.537l8.625.039a4.979,4.979,0,0,1,2.766.7,3.668,3.668,0,0,1,0,5.163Z" transform="translate(-962.078 -50.705)"/><path class="c" d="M1769.955,982.151v26.417a1.473,1.473,0,0,0,1.468,1.352h4.643v-27.77Z" transform="translate(-1156.869 -50.705)"/><path class="c" d="M1848.819,982.453v4.834h8.934v21.485c0,.02,0,.04,0,.06a1.473,1.473,0,0,0,1.468,1.352h4.561v-22.9h9.012v-4.834Z" transform="translate(-1225.625 -50.968)"/><g transform="translate(537.7 971.053)"><path class="c" d="M1183.744,1291.6a.02.02,0,0,0,.015.006H1184a2.107,2.107,0,0,1,.23.012,2.528,2.528,0,0,1,.409.057,1.308,1.308,0,0,1,.379.148,1.055,1.055,0,0,1,.457.515,1.84,1.84,0,0,1,.142.684,1.636,1.636,0,0,1-.112.63,1.115,1.115,0,0,1-.391.5,1.267,1.267,0,0,1-.5.215,3.86,3.86,0,0,1-.548.064h-.291l-1.108-.006v1.52h-.915V1291.6Zm-.012.776h-1.06v1.284h1.115a1.2,1.2,0,0,0,.575-.13.521.521,0,0,0,.242-.506q.012-.418-.257-.53a1.592,1.592,0,0,0-.615-.112Z" transform="translate(-1181.757 -1291.55)"/><path class="c" d="M1216.952,1300.632a2.744,2.744,0,0,1,.536.064.94.94,0,0,1,.464.264.919.919,0,0,1,.245.4,1.628,1.628,0,0,1,.07.472v1.993H1216a1,1,0,0,1-.751-.27.957.957,0,0,1-.236-.748.806.806,0,0,1,.406-.745,2.035,2.035,0,0,1,.866-.17l1.108-.006q.018-.393-.2-.49a1.4,1.4,0,0,0-.56-.1l-1.405-.006v-.66Zm-.606,2.55h1.054v-.66h-.993a.054.054,0,0,1-.024.006h-.024a.941.941,0,0,0-.315.063.265.265,0,0,0-.151.27q-.012.236.13.279a1.277,1.277,0,0,0,.324.048Z" transform="translate(-1210.75 -1299.42)"/><path class="c" d="M1247.589,1300.632q.684.006.794.315a2.477,2.477,0,0,1,.1.83v.2l-.806-.006v-.133a1.025,1.025,0,0,0-.07-.515q-.07-.073-.506-.073h-.091v2.574h-.842v-3.192Z" transform="translate(-1237.916 -1299.42)"/><path class="c" d="M1266.52,1292.761V1291.6h.842v1.157h.891v.636h-.891v1.29q-.006.478.218.557a1.93,1.93,0,0,0,.618.079h.055v.63h-.769a.925.925,0,0,1-.721-.267,1.039,1.039,0,0,1-.242-.727V1293.4h-.594v-.636Z" transform="translate(-1255.138 -1291.55)"/><path class="c" d="M1307.5,1303.071a1.4,1.4,0,0,1-.554.339,2.083,2.083,0,0,1-.669.109,2.054,2.054,0,0,1-.666-.109,1.443,1.443,0,0,1-.551-.333,1.47,1.47,0,0,1-.354-.551,1.906,1.906,0,0,1,0-1.321,1.446,1.446,0,0,1,.909-.887,2.038,2.038,0,0,1,1.332,0,1.447,1.447,0,0,1,.909.887,1.9,1.9,0,0,1,0,1.321,1.468,1.468,0,0,1-.354.551Zm-1.508-.3a.787.787,0,0,0,.082.03.542.542,0,0,0,.076.018.807.807,0,0,0,.545-.109.734.734,0,0,0,.339-.442,1.436,1.436,0,0,0,.045-.221,1.914,1.914,0,0,0,.015-.239,1.293,1.293,0,0,0-.127-.506.7.7,0,0,0-.37-.348.579.579,0,0,0-.115-.036c-.041-.008-.079-.014-.115-.018a.825.825,0,0,0-.521.127.745.745,0,0,0-.327.424,1.443,1.443,0,0,0-.045.215,1.163,1.163,0,0,0-.009.221,1.258,1.258,0,0,0,.13.536.7.7,0,0,0,.4.354Z" transform="translate(-1288.842 -1299.049)"/><path class="c" d="M1332.561,1293.4v-.636h.606v-.1a2.186,2.186,0,0,1,.106-.781q.106-.261.766-.267l.8-.006v.618a.182.182,0,0,1-.061,0c-.024,0-.051,0-.079,0l-.1,0-.1,0a1.313,1.313,0,0,0-.206.015.285.285,0,0,0-.145.057.224.224,0,0,0-.088.127.6.6,0,0,0-.021.158v.054a.2.2,0,0,0,.006.049v.091l.8-.006v.636h-.8v2.556h-.872V1293.4Z" transform="translate(-1313.233 -1291.55)"/><path class="c" d="M1373.841,1291.6l1.108,3.338,1.108-3.338h1.339v4.349h-.9l.073-3.386-1.115,3.386h-.969l-1.151-3.422.091,3.422h-.933V1291.6Z" transform="translate(-1348.05 -1291.55)"/><path class="c" d="M1418.2,1303.824a1.7,1.7,0,0,1-.969-.242,1.037,1.037,0,0,1-.357-.921v-2.029h.842v1.956a.575.575,0,0,0,.121.43.649.649,0,0,0,.43.109l.678-.006v-2.49h.842v3.192Z" transform="translate(-1386.739 -1299.42)"/><path class="c" d="M1445.416,1295.953V1291.6h.878v4.349Z" transform="translate(-1411.624 -1291.55)"/><path class="c" d="M1456.029,1292.761V1291.6h.842v1.157h.89v.636h-.89v1.29q-.006.478.218.557a1.929,1.929,0,0,0,.618.079h.054v.63h-.769a.926.926,0,0,1-.721-.267,1.04,1.04,0,0,1-.242-.727V1293.4h-.594v-.636Z" transform="translate(-1420.359 -1291.55)"/><path class="c" d="M1477.458,1292.4v-.793h.884v.793Zm0,3.556v-3.192h.884v3.192Z" transform="translate(-1439.56 -1291.55)"/><path class="c" d="M1490.69,1295.953V1291.6h2.235a.959.959,0,0,0,.109.006,1.018,1.018,0,0,1,.109.006,2.606,2.606,0,0,1,.839.169.863.863,0,0,1,.512.666,1.157,1.157,0,0,1-.058.784,1.364,1.364,0,0,1-.554.548,1.118,1.118,0,0,1,.582.533,1.313,1.313,0,0,1,.042.812.85.85,0,0,1-.494.657,2.186,2.186,0,0,1-.821.167h-2.5Zm.915-2.562h1.339a.763.763,0,0,0,.43-.1.431.431,0,0,0,.169-.4.414.414,0,0,0-.169-.394.8.8,0,0,0-.43-.109l-1.339-.006Zm1.784,1.693a.574.574,0,0,0,0-.809.779.779,0,0,0-.433-.109l-1.351-.006v1.024h1.351A.7.7,0,0,0,1493.388,1295.084Z" transform="translate(-1451.096 -1291.55)"/><path class="c" d="M1526.5,1300.632a2.74,2.74,0,0,1,.536.064.938.938,0,0,1,.463.264.917.917,0,0,1,.245.4,1.628,1.628,0,0,1,.07.472v1.993h-2.265a1,1,0,0,1-.751-.27.958.958,0,0,1-.236-.748.807.807,0,0,1,.406-.745,2.034,2.034,0,0,1,.866-.17l1.108-.006q.018-.393-.2-.49a1.4,1.4,0,0,0-.56-.1l-1.405-.006v-.66Zm-.606,2.55h1.054v-.66h-.993a.051.051,0,0,1-.024.006h-.024a.94.94,0,0,0-.315.063.265.265,0,0,0-.151.27q-.012.236.13.279a1.277,1.277,0,0,0,.324.048Z" transform="translate(-1480.624 -1299.42)"/><path class="c" d="M1557.306,1300.632a1.742,1.742,0,0,1,.981.248,1.054,1.054,0,0,1,.351.927v2.017h-.842v-1.92a.668.668,0,0,0-.109-.448.63.63,0,0,0-.448-.115l-.678-.006v2.489h-.842v-3.192Z" transform="translate(-1507.79 -1299.42)"/><path class="c" d="M1585.1,1291.6v2.689l1.357-1.532h1.066l-1.478,1.563,1.478,1.629H1586.4l-1.29-1.551v1.551h-.842V1291.6Z" transform="translate(-1532.676 -1291.55)"/><path class="c" d="M1631.174,1293.373h2.162v2.58h-1.969a4.087,4.087,0,0,1-.727-.064,1.42,1.42,0,0,1-.654-.312,1.576,1.576,0,0,1-.509-.724,2.943,2.943,0,0,1-.157-.875c0-.064-.005-.127,0-.188s.005-.121.009-.182a2.257,2.257,0,0,1,.56-1.514,2.034,2.034,0,0,1,1.481-.485l1.969-.006v.751h-1.969a.819.819,0,0,0-.839.457,2.516,2.516,0,0,0-.191.99v.018a2.187,2.187,0,0,0,.191.951.833.833,0,0,0,.839.4l1.03-.006v-1.024h-1.224Z" transform="translate(-1571.955 -1291.55)"/><path class="c" d="M1667.3,1300.632q.684.006.794.315a2.478,2.478,0,0,1,.1.83v.2l-.805-.006v-.133a1.022,1.022,0,0,0-.07-.515q-.07-.073-.506-.073h-.091v2.574h-.842v-3.192Z" transform="translate(-1603.834 -1299.42)"/><path class="c" d="M1689.351,1303.071a1.4,1.4,0,0,1-.554.339,2.083,2.083,0,0,1-.669.109,2.055,2.055,0,0,1-.666-.109,1.442,1.442,0,0,1-.551-.333,1.469,1.469,0,0,1-.354-.551,1.906,1.906,0,0,1,0-1.321,1.448,1.448,0,0,1,.908-.887,2.039,2.039,0,0,1,1.333,0,1.448,1.448,0,0,1,.908.887,1.9,1.9,0,0,1,0,1.321,1.467,1.467,0,0,1-.354.551Zm-1.508-.3a.769.769,0,0,0,.082.03.551.551,0,0,0,.076.018.806.806,0,0,0,.545-.109.735.735,0,0,0,.339-.442,1.451,1.451,0,0,0,.045-.221,1.914,1.914,0,0,0,.015-.239,1.3,1.3,0,0,0-.127-.506.7.7,0,0,0-.37-.348.581.581,0,0,0-.115-.036c-.04-.008-.079-.014-.115-.018a.825.825,0,0,0-.521.127.747.747,0,0,0-.327.424,1.444,1.444,0,0,0-.046.215,1.183,1.183,0,0,0-.009.221,1.255,1.255,0,0,0,.13.536.7.7,0,0,0,.4.354Z" transform="translate(-1621.756 -1299.049)"/><path class="c" d="M1718.011,1303.824a1.7,1.7,0,0,1-.969-.242,1.037,1.037,0,0,1-.357-.921v-2.029h.842v1.956a.574.574,0,0,0,.121.43.647.647,0,0,0,.43.109l.678-.006v-2.49h.842v3.192Z" transform="translate(-1648.125 -1299.42)"/><path class="c" d="M1746.993,1300.632a1.524,1.524,0,0,1,1.118.412,1.609,1.609,0,0,1,.433,1.109,2.063,2.063,0,0,1-.061.63,1.451,1.451,0,0,1-.279.557,1.05,1.05,0,0,1-.569.4,2.768,2.768,0,0,1-.7.085h-.727v1.151h-.842v-4.343Zm-.781.691v1.817a.583.583,0,0,0,.082.006h.082a2.884,2.884,0,0,0,.945-.118q.363-.124.345-.881-.018-.636-.363-.733a2.965,2.965,0,0,0-.83-.091c-.044,0-.088.006-.13.006h-.13Z" transform="translate(-1673.135 -1299.42)"/><path class="c" d="M1773.545,1320.387h-.339v-.757h.727v.23c0,.161,0,.3-.006.424a.808.808,0,0,1-.109.351.83.83,0,0,1-.109.155,1.82,1.82,0,0,1-.163.161Z" transform="translate(-1697.403 -1315.984)"/><path class="c" d="M1801.375,1303.742a1.148,1.148,0,0,1-.56-.342,1.3,1.3,0,0,1-.282-.485,2.291,2.291,0,0,1-.106-.557v-.2a.582.582,0,0,1,.006-.082,2.136,2.136,0,0,1,.106-.536,1.3,1.3,0,0,1,.276-.469,1.128,1.128,0,0,1,.56-.348,2.626,2.626,0,0,1,.657-.082l1.23-.006v.666h-1.115a1.4,1.4,0,0,0-.563.106q-.212.1-.224.5l1.9-.006v.666h-1.9q.012.418.212.509a1.421,1.421,0,0,0,.569.091l1.121-.006v.666h-1.23A2.626,2.626,0,0,1,1801.375,1303.742Z" transform="translate(-1721.135 -1299.42)"/><path class="c" d="M1827.776,1303.157a.049.049,0,0,0,.024.006h.024a.7.7,0,0,0,.278-.067.247.247,0,0,0,.127-.248.239.239,0,0,0-.121-.236.721.721,0,0,0-.26-.073h-.073l-.727-.006a1.785,1.785,0,0,1-.8-.139q-.294-.145-.3-.739a.907.907,0,0,1,.3-.788,1.345,1.345,0,0,1,.823-.23l1.811-.006v.666h-1.49a.1.1,0,0,1-.033.006h-.2a.614.614,0,0,0-.209.048.221.221,0,0,0-.13.158q-.049.212.085.291a.6.6,0,0,0,.309.078l.763-.006a1.354,1.354,0,0,1,.751.209.819.819,0,0,1,.321.7v.018a1.153,1.153,0,0,1-.221.706.752.752,0,0,1-.651.318H1826v-.666Z" transform="translate(-1743.384 -1299.42)"/><path class="c" d="M1852.959,1292.761V1291.6h.842v1.157h.89v.636h-.89v1.29q-.006.478.218.557a1.93,1.93,0,0,0,.618.079h.054v.63h-.769a.925.925,0,0,1-.721-.267,1.041,1.041,0,0,1-.242-.727V1293.4h-.594v-.636Z" transform="translate(-1766.417 -1291.55)"/><path class="c" d="M1874.123,1319.63v.757h-.727v-.757Z" transform="translate(-1784.753 -1315.984)"/><path class="c" d="M1900.616,1294.024a.868.868,0,0,1,.427-.463,1.316,1.316,0,0,1,.472-.155,4,4,0,0,1,.515-.033h.285q.133.006.263.006t.251-.006a.5.5,0,0,0,.388-.173.549.549,0,0,0,.1-.421q-.036-.3-.248-.36a1.754,1.754,0,0,0-.46-.058l-2.083-.006v-.751h2.277a.315.315,0,0,0,.063.006h.191a3.059,3.059,0,0,1,.385.024.962.962,0,0,1,.36.121.9.9,0,0,1,.4.427,1.616,1.616,0,0,1,.142.572v.036a1.169,1.169,0,0,1-1.308,1.363l-.824-.006q-.539.006-.627.251a1.958,1.958,0,0,0-.082.669v.145l2.823-.006v.745h-3.8v-1.308A1.923,1.923,0,0,1,1900.616,1294.024Z" transform="translate(-1808.402 -1291.55)"/><path class="c" d="M1934.057,1295.559a1.81,1.81,0,0,1-.809-.406,1.7,1.7,0,0,1-.463-.781,3.478,3.478,0,0,1-.094-.46,3.642,3.642,0,0,1-.033-.5,3.6,3.6,0,0,1,.033-.491,3.482,3.482,0,0,1,.094-.46,1.643,1.643,0,0,1,1.272-1.193,2.877,2.877,0,0,1,.4-.069,4.1,4.1,0,0,1,.418-.021,2.96,2.96,0,0,1,.375.024q.188.025.37.067a1.784,1.784,0,0,1,.806.415,1.71,1.71,0,0,1,.46.778,2.752,2.752,0,0,1,.1.46,3.939,3.939,0,0,1,.03.491,3.988,3.988,0,0,1-.03.5,2.75,2.75,0,0,1-.1.46,1.71,1.71,0,0,1-.46.778,1.779,1.779,0,0,1-.806.415q-.182.036-.373.058t-.379.027a4.01,4.01,0,0,1-.415-.021,3.654,3.654,0,0,1-.4-.064Zm1.66-.963a1.15,1.15,0,0,0,.248-.5,2.731,2.731,0,0,0,0-1.351,1.2,1.2,0,0,0-.248-.506.931.931,0,0,0-.391-.255,1.389,1.389,0,0,0-.5-.079,1.5,1.5,0,0,0-.487.082.9.9,0,0,0-.391.252,1.175,1.175,0,0,0-.245.506,2.83,2.83,0,0,0,0,1.351,1.174,1.174,0,0,0,.245.506.952.952,0,0,0,.394.251,1.49,1.49,0,0,0,.491.082,1.469,1.469,0,0,0,.494-.085.959.959,0,0,0,.391-.248Z" transform="translate(-1836.419 -1291.18)"/><path class="c" d="M1970.589,1295.559a1.81,1.81,0,0,1-.809-.406,1.7,1.7,0,0,1-.463-.781,3.478,3.478,0,0,1-.094-.46,3.623,3.623,0,0,1-.033-.5,3.579,3.579,0,0,1,.033-.491,3.482,3.482,0,0,1,.094-.46,1.643,1.643,0,0,1,1.272-1.193,2.88,2.88,0,0,1,.4-.069,4.105,4.105,0,0,1,.418-.021,2.96,2.96,0,0,1,.375.024q.188.025.37.067a1.785,1.785,0,0,1,.806.415,1.713,1.713,0,0,1,.46.778,2.765,2.765,0,0,1,.1.46,3.939,3.939,0,0,1,.03.491,3.988,3.988,0,0,1-.03.5,2.762,2.762,0,0,1-.1.46,1.713,1.713,0,0,1-.46.778,1.78,1.78,0,0,1-.806.415q-.182.036-.372.058t-.379.027a4.01,4.01,0,0,1-.415-.021,3.659,3.659,0,0,1-.4-.064Zm1.659-.963a1.147,1.147,0,0,0,.249-.5,2.735,2.735,0,0,0,0-1.351,1.2,1.2,0,0,0-.249-.506.928.928,0,0,0-.391-.255,1.388,1.388,0,0,0-.5-.079,1.5,1.5,0,0,0-.488.082.9.9,0,0,0-.391.252,1.175,1.175,0,0,0-.245.506,2.83,2.83,0,0,0,0,1.351,1.174,1.174,0,0,0,.245.506.952.952,0,0,0,.394.251,1.49,1.49,0,0,0,.491.082,1.468,1.468,0,0,0,.494-.085.956.956,0,0,0,.391-.248Z" transform="translate(-1868.269 -1291.18)"/><path class="c" d="M2008.067,1295.208a.891.891,0,0,0,.472-.1.6.6,0,0,0,0-.872.923.923,0,0,0-.475-.109l-2.108-.006V1291.6h3.616v.745h-2.653v1.024h1.557a1.381,1.381,0,0,1,.966.336,1.248,1.248,0,0,1,.354.96,1.12,1.12,0,0,1-.436,1,1.954,1.954,0,0,1-1.09.282h-2.314v-.745Z" transform="translate(-1900.325 -1291.55)"/></g></g></svg>